<?xml version="1.0" encoding="UTF-8"?>
<svg width="68px" height="101px" viewBox="0 0 68 101" version="1.1" xmlns="http://www.w3.org/2000/svg" xmlns:xlink="http://www.w3.org/1999/xlink">
    <!-- Generator: Sketch 48.2 (47327) - http://www.bohemiancoding.com/sketch -->
    <title>Group</title>
    <desc>Created with Sketch.</desc>
    <defs></defs>
    <g id="Page-1" stroke="none" stroke-width="1" fill="none" fill-rule="evenodd">
        <g id="Group">
            <path d="M45.1711154,43.0042251 C42.4355008,42.6614246 40.1446093,44.649343 40.1446093,47.1178303 L40.1446093,45.0610277 C40.1446093,42.9361512 38.5186181,41.0851909 36.301119,40.8104643 C33.5655044,40.4676639 31.2746129,42.4555823 31.2746129,44.9240696 L31.2746129,42.867267 C31.2746129,40.7415801 29.6477479,38.8906198 27.4302488,38.6167036 C24.695508,38.2739032 22.4037428,40.2618216 22.4037428,42.7303089 L22.4037428,24.9727599 C22.4037428,22.7101149 20.4081684,20.8591546 17.9687446,20.8591546 C15.5293209,20.8591546 13.5337464,22.7101149 13.5337464,24.9727599 L13.5337464,56.7851269 C13.5337464,57.2656958 12.8679724,57.4026539 12.5726554,56.9909692 C10.9466641,54.3855238 8.95108968,50.7524875 8.95108968,50.6836032 C7.91573253,48.6948744 5.25438413,47.8723155 3.11115115,48.8318325 C0.967918174,49.79216 0.0810932781,52.2606473 1.1155767,54.2485657 C1.26323523,54.454408 5.10759932,61.6532173 8.72916502,66.4524234 C13.3860879,72.5547574 17.3772368,75.4341191 19.3736849,76.6683627 C21.3692594,77.9706802 23.4391,78.7243549 24.695508,78.7243549 L36.0049282,78.7243549 C38.0005026,78.7243549 39.7741524,77.8337221 40.9580418,76.256678 L43.0270087,73.4453903 C47.0181576,68.0983517 49.1622643,61.5162592 49.1622643,54.7972085 L49.1622643,47.2547884 C49.013732,45.1299119 47.3886145,43.2789517 45.1711154,43.0042251" id="Fill-11" fill="#828282"></path>
            <polygon id="Fill-9" fill="#6F7070" points="55.863069 80.1972629 61.7073761 100.438697 67.5604204 80.1972629"></polygon>
            <polygon id="Fill-7" fill="#6F7070" points="55.863069 20.7078563 61.7073761 0.466422368 67.5604204 20.7078563"></polygon>
            <path d="M61.7120915,17.008773 L61.7120915,83.8961891" id="Stroke-5" stroke="#6F7070" stroke-width="2.304"></path>
            <path d="M61.7120915,0.466739722 L61.7120915,100.438045" id="Fill-3" fill="#F2F2F2"></path>
            <path d="M10.5030673,33.4740519 L10.5030673,24.9729252 C10.5030673,21.2013099 13.8301897,18.1169164 17.894731,18.1169164 C21.960146,18.1169164 25.2872684,21.2013099 25.2872684,24.9729252 L25.2872684,33.405978 C28.0220092,31.4172492 29.795659,28.263161 29.795659,24.7670828 C29.795659,18.6655592 24.4738359,13.7285845 17.894731,13.7285845 C11.3164998,13.7285845 5.92041059,18.6655592 5.92041059,24.7670828 C5.92041059,28.263161 7.69406038,31.4172492 10.5030673,33.4740519" id="Fill-1" fill="#828282"></path>
        </g>
    </g>
</svg>